<svg id="Layer_1" data-name="Layer 1" xmlns="http://www.w3.org/2000/svg" viewBox="0 0 119.0127 44.8686"><defs><style>.cls-1{fill:#414042;}</style></defs><title>icon-infinity</title><path class="cls-1" d="M85.4944,1.687c-8.61,1.9877-16.26,8.8025-22.952,14.18,3.4073-1.5377,7.2822-2.4332,10.8513-3.6083a68.63,68.63,0,0,1,11.07-2.8177c9.0078-.2665,21.2176,2.5119,23.4759,12.8039.9612,4.4427-3.3155,9.1519-6.7884,11.1745-4.1981,2.4114-8.9467,3.91-13.8525,3.272C77.596,35.4289,71.0521,28.885,64.4035,22.3236,57.5143,15.4651,50.14,8.48,41.4166,4.0241c-8.58-4.3772-20.5624-5.0893-28.9322.3669C4.302,9.725-2.2461,19.554,2.1879,29.549A26.502,26.502,0,0,0,25.5548,45.3672,35.0423,35.0423,0,0,0,52.25,33.8432a25.3036,25.3036,0,0,0,2.7215-3.53c-8.0378,3.4729-18.0548,7.0026-26.9533,5.8668C23.353,35.5949,18.5478,34,15.245,30.4969c-3.512-3.7394-3.2675-8.8243-.8868-13.0573A17.141,17.141,0,0,1,25.6334,9.0872c4.98-1.0572,9.5581.6946,13.8218,3.0841,4.1981,2.3415,7.9722,5.4606,11.83,8.287,3.7832,2.7783,6.9068,6.2469,10.2834,9.4926,7.3784,7.0594,15.6,12.1356,25.73,14.0053a29.3388,29.3388,0,0,0,26.8573-9.3922,20.4245,20.4245,0,0,0,5.6133-13.4461c0-4.7048-2.73-9.6324-6.1069-12.7777C105.7638.9837,95.7775-.6938,85.4944,1.687" transform="translate(-0.7563 -0.519)"/></svg>